<?xml version="1.0" encoding="UTF-8" standalone="no"?><!DOCTYPE svg PUBLIC "-//W3C//DTD SVG 1.1//EN" "http://www.w3.org/Graphics/SVG/1.1/DTD/svg11.dtd"><svg width="100%" height="100%" viewBox="0 0 594 362" version="1.1" xmlns="http://www.w3.org/2000/svg" xmlns:xlink="http://www.w3.org/1999/xlink" xml:space="preserve" xmlns:serif="http://www.serif.com/" style="fill-rule:evenodd;clip-rule:evenodd;stroke-linecap:round;stroke-linejoin:round;stroke-miterlimit:1.5;"><path d="M283.465,28.346l0,56.693c0,15.645 -12.702,28.346 -28.346,28.346l-226.772,0c-15.645,0 -28.346,-12.702 -28.346,-28.346l0,-56.693c0,-15.645 12.702,-28.346 28.346,-28.346l226.772,0c15.645,0 28.346,12.702 28.346,28.346Z" style="fill:#ddf0e4;"/><path d="M283.465,276.525l0,56.693c0,15.645 -12.702,28.346 -28.346,28.346l-226.772,0c-15.645,0 -28.346,-12.702 -28.346,-28.346l0,-56.693c0,-15.645 12.702,-28.346 28.346,-28.346l226.772,0c15.645,0 28.346,12.702 28.346,28.346Z" style="fill:#ddf0e4;"/><path d="M593.721,276.525l0,56.693c0,15.645 -12.702,28.346 -28.346,28.346l-226.772,0c-15.645,0 -28.346,-12.702 -28.346,-28.346l0,-56.693c0,-15.645 12.702,-28.346 28.346,-28.346l226.772,0c15.645,0 28.346,12.702 28.346,28.346Z" style="fill:#ddf0e4;"/><g transform="matrix(24,0,0,24,559.419979,290.013363)"></g><text x="343.42px" y="290.013px" style="font-family:'BIZ-UDGothic', 'BIZ UDGothic', sans-serif;font-size:24px;">クラウドストレージ</text><g transform="matrix(24,0,0,24,500.919979,325.942138)"></g><text x="404.92px" y="325.942px" style="font-family:'BIZ-UDGothic-Bold', 'BIZ UDGothic', sans-serif;font-weight:700;font-size:24px;fill:#d14d41;">生データ</text><g transform="matrix(0.24,0,0,0.24,-196.56618,53.319356)"><text x="925.422px" y="920.209px" style="font-family:'ArialMT', 'Arial', sans-serif;font-size:100px;">GitHub</text><text x="925.422px" y="1023.481px" style="font-family:'ArialMT', 'Arial', sans-serif;font-size:100px;">(</text><text x="958.722px" y="1023.481px" style="font-family:'BIZ-UDGothic', 'BIZ UDGothic', sans-serif;font-size:100px;">リモートリポジトリ</text><g transform="matrix(100,0,0,100,1892.023222,1023.480888)"></g><text x="1858.722px" y="1023.481px" style="font-family:'ArialMT', 'Arial', sans-serif;font-size:100px;">)</text></g><g transform="matrix(24,0,0,24,210.841516,188.549023)"></g><text x="152.166px" y="188.549px" style="font-family:'Arial-BoldMT', 'Arial', sans-serif;font-weight:700;font-size:24px;">Push</text><g transform="matrix(24,0,0,24,100.952396,188.549023)"></g><text x="56.948px" y="188.549px" style="font-family:'Arial-BoldMT', 'Arial', sans-serif;font-weight:700;font-size:24px;">Pull</text><g transform="matrix(24,0,0,24,202.669783,329.862017)"></g><text x="82.67px" y="329.862px" style="font-family:'BIZ-UDGothic-Bold', 'BIZ UDGothic', sans-serif;font-weight:700;font-size:24px;fill:#d14d41;">解析コード</text><g transform="matrix(0.24,0,0,0.24,-197.575101,-195.069702)"><text x="925.422px" y="920.209px" style="font-family:'BIZ-UDGothic', 'BIZ UDGothic', sans-serif;font-size:100px;">ローカル</text><text x="1325.422px" y="920.209px" style="font-family:'ArialMT', 'Arial', sans-serif;font-size:100px;">PC</text><text x="925.422px" y="1023.481px" style="font-family:'ArialMT', 'Arial', sans-serif;font-size:100px;">(</text><text x="958.722px" y="1023.481px" style="font-family:'BIZ-UDGothic', 'BIZ UDGothic', sans-serif;font-size:100px;">ローカルリポジトリ</text><g transform="matrix(100,0,0,100,1892.023222,1023.480888)"></g><text x="1858.722px" y="1023.481px" style="font-family:'ArialMT', 'Arial', sans-serif;font-size:100px;">)</text></g><g transform="matrix(24,0,0,24,461.027905,184.978779)"></g><text x="302.684px" y="184.979px" style="font-family:'Consolas-Bold', 'Consolas', monospace;font-weight:700;font-size:24px;">Sys.getenv()</text><path d="M149.232,233.179l-7.5,15l-7.5,-15l15,0Z"/><path d="M141.732,113.386l0,122.793" style="fill:none;stroke:#000;stroke-width:5px;"/><path d="M121.694,128.386l-7.5,-15l-7.5,15l15,0Z"/><path d="M114.194,125.386l0,122.793" style="fill:none;stroke:#000;stroke-width:5px;"/><path d="M220.989,127.931l-5.303,-15.91l15.91,5.303l-10.607,10.607Z"/><path d="M351.844,248.179c0,0 -97.903,-97.903 -127.673,-127.673" style="fill:none;stroke:#000;stroke-width:5px;"/><g><g transform="matrix(0.24,0,0,0.24,-132.146567,-147.984556)"><text x="925.422px" y="920.209px" style="font-family:'Consolas-Bold', 'Consolas', monospace;font-weight:700;font-size:100px;fill:#d14d41;">.Renviron</text><g transform="matrix(100,0,0,100,1425.421659,1020.209403)"></g><text x="925.422px" y="1020.209px" style="font-family:'BIZ-UDGothic-Bold', 'BIZ UDGothic', sans-serif;font-weight:700;font-size:100px;fill:#d14d41;">解析コード</text></g><circle cx="78.884" cy="66.417" r="4.252"/><circle cx="78.884" cy="88.709" r="4.252"/></g></svg>